<?xml version="1.0" encoding="UTF-8" standalone="no"?>
<svg
   stroke="currentColor"
   fill="currentColor"
   stroke-width="0"
   viewBox="0 0 12.000001 16.000001"
   height="200.00002"
   width="150.00002"
   version="1.1"
   id="svg8"
   sodipodi:docname="clipboard.svg"
   inkscape:version="1.2.2 (b0a8486541, 2022-12-01)"
   xmlns:inkscape="http://www.inkscape.org/namespaces/inkscape"
   xmlns:sodipodi="http://sodipodi.sourceforge.net/DTD/sodipodi-0.dtd"
   xmlns="http://www.w3.org/2000/svg"
   xmlns:svg="http://www.w3.org/2000/svg">
  <defs
     id="defs12" />
  <sodipodi:namedview
     id="namedview10"
     pagecolor="#ffffff"
     bordercolor="#666666"
     borderopacity="1.0"
     inkscape:showpageshadow="2"
     inkscape:pageopacity="0.0"
     inkscape:pagecheckerboard="0"
     inkscape:deskcolor="#d1d1d1"
     showgrid="false"
     inkscape:zoom="2.7912615"
     inkscape:cx="144.37916"
     inkscape:cy="101.20872"
     inkscape:window-width="1920"
     inkscape:window-height="1112"
     inkscape:window-x="0"
     inkscape:window-y="0"
     inkscape:window-maximized="1"
     inkscape:current-layer="svg8" />
  <path
     d="m 7.5000005,5e-7 a 0.5,0.5 0 0 1 0.5,0.5 0.5,0.5 0 0 0 0.5,0.5 0.5,0.5 0 0 1 0.5,0.5 v 0.5 a 0.5,0.5 0 0 1 -0.5,0.5 h -5 a 0.5,0.5 0 0 1 -0.5,-0.5 v -0.5 a 0.5,0.5 0 0 1 0.5,-0.5 0.5,0.5 0 0 0 0.5,-0.5 0.5,0.5 0 0 1 0.5,-0.5 z"
     id="path2" />
  <path
     d="m 1.0000005,2.5000005 a 0.5,0.5 0 0 1 0.5,-0.5 h 0.5 a 0.5,0.5 0 0 0 0,-1 h -0.5 a 1.5,1.5 0 0 0 -1.5,1.5 V 14.500001 a 1.5,1.5 0 0 0 1.5,1.5 h 9.0000005 a 1.5,1.5 0 0 0 1.5,-1.5 V 2.5000005 a 1.5,1.5 0 0 0 -1.5,-1.5 h -0.5 a 0.5,0.5 0 0 0 0,1 h 0.5 a 0.5,0.5 0 0 1 0.5,0.5 V 14.500001 a 0.5,0.5 0 0 1 -0.5,0.5 H 1.5000005 a 0.5,0.5 0 0 1 -0.5,-0.5 z"
     id="path4" />
  <path
     d="m 8.8540005,7.8540005 a 0.5006316,0.5006316 0 0 0 -0.708,-0.708 l -2.646,2.647 -1.146,-1.147 a 0.5006316,0.5006316 0 1 0 -0.708,0.708 l 1.5,1.4999995 a 0.5,0.5 0 0 0 0.708,0 z"
     id="path6" />
</svg>
